<svg xmlns="http://www.w3.org/2000/svg" width="1250" height="720" viewBox="0 0 1250 720">
  <defs>
    <linearGradient id="bg" x1="0" y1="0" x2="1" y2="1">
      <stop offset="0" stop-color="#05090d"/>
      <stop offset="0.5" stop-color="#071217"/>
      <stop offset="1" stop-color="#11181d"/>
    </linearGradient>
    <linearGradient id="arc" x1="0" y1="0" x2="1" y2="0">
      <stop offset="0" stop-color="#23c7c9"/>
      <stop offset="1" stop-color="#f1bc55"/>
    </linearGradient>
    <filter id="shadow" x="-30%" y="-30%" width="160%" height="160%">
      <feDropShadow dx="0" dy="24" stdDeviation="24" flood-color="#000000" flood-opacity="0.45"/>
    </filter>
    <pattern id="dots" width="18" height="18" patternUnits="userSpaceOnUse">
      <circle cx="3" cy="3" r="1.1" fill="#f1bc55" opacity="0.35"/>
    </pattern>
  </defs>

  <rect width="1250" height="720" fill="url(#bg)"/>
  <path d="M-60 700 C210 540 425 510 680 485 C910 462 1060 340 1320 90 L1320 720 Z" fill="#081014" opacity="0.92"/>
  <path d="M-120 685 C240 560 490 535 760 492 C975 458 1095 350 1320 178" fill="none" stroke="#243943" stroke-width="2"/>
  <path d="M580 180 C680 110 770 108 860 162 C950 216 1010 184 1114 90" fill="none" stroke="url(#arc)" stroke-width="3" opacity="0.9"/>
  <path d="M-80 700 C245 560 486 535 760 492 C980 456 1110 342 1320 164" fill="none" stroke="url(#arc)" stroke-width="4"/>
  <rect x="1035" y="286" width="185" height="245" fill="url(#dots)" opacity="0.38" transform="rotate(-18 1127 408)"/>

  <rect x="0" y="0" width="1250" height="34" fill="#080d10" opacity="0.96"/>
  <line x1="0" y1="34" x2="1250" y2="34" stroke="#25343a"/>
  <path d="M18 26 L30 6 L42 26 H35 L30 17 L25 26 Z" fill="#f1bc55"/>
  <text x="54" y="22" fill="#eef6f6" font-family="Segoe UI, Arial" font-size="13" font-weight="700">Aurion</text>
  <g transform="translate(546 8)" font-family="Segoe UI, Arial" font-size="12">
    <rect width="31" height="20" rx="5" fill="#151d21" stroke="#b58636"/>
    <text x="13" y="14" fill="#f1bc55">1</text>
    <rect x="38" width="31" height="20" rx="5" fill="#10171a" stroke="#28363b"/>
    <text x="50" y="14" fill="#9facb1">2</text>
    <rect x="76" width="31" height="20" rx="5" fill="#10171a" stroke="#28363b"/>
    <text x="88" y="14" fill="#9facb1">3</text>
    <rect x="114" width="31" height="20" rx="5" fill="#10171a" stroke="#28363b"/>
    <text x="126" y="14" fill="#9facb1">4</text>
  </g>
  <text x="1030" y="22" fill="#d9e5e6" font-family="Segoe UI, Arial" font-size="12">Wi-Fi    82%    Audio    18:42</text>
  <circle cx="1226" cy="42" r="24" fill="#f5f7f8"/>
  <text x="1218" y="51" fill="#101518" font-family="Segoe UI, Arial" font-size="26">x</text>

  <g transform="translate(38 65)">
    <rect width="45" height="45" rx="8" fill="#1e666b"/>
    <path d="M13 27 L23 16 L34 27 H31 V35 H16 V27 Z" fill="#c8fffb"/>
    <text x="7" y="65" fill="#eef6f6" font-family="Segoe UI, Arial" font-size="12">Home</text>
  </g>

  <g filter="url(#shadow)">
    <rect x="176" y="67" width="928" height="530" rx="8" fill="#081014" opacity="0.94" stroke="#28383d"/>
    <rect x="176" y="67" width="928" height="52" rx="8" fill="#0e1518" stroke="#28383d"/>
    <path d="M206 105 L219 80 L233 105 H225 L219 94 L213 105 Z" fill="#f1bc55"/>
    <text x="244" y="91" fill="#edf5f5" font-family="Segoe UI, Arial" font-size="16" font-weight="700">Aurion Experience</text>
    <text x="244" y="107" fill="#f1bc55" font-family="Segoe UI, Arial" font-size="11" font-weight="700">Command Center</text>
    <text x="990" y="91" fill="#9eabb0" font-family="Segoe UI, Arial" font-size="18">-  □  x</text>

    <rect x="176" y="119" width="146" height="478" fill="#080e11" stroke="#1f3035"/>
    <g font-family="Segoe UI, Arial" font-size="12" fill="#dce7e8">
      <rect x="188" y="131" width="122" height="38" rx="8" fill="#2a281b" stroke="#9c7430"/>
      <rect x="188" y="131" width="4" height="38" rx="2" fill="#f1bc55"/>
      <text x="222" y="154">Panoramica</text>
      <text x="222" y="190" fill="#9eabb0">Sistema</text>
      <text x="222" y="226" fill="#9eabb0">Rete</text>
      <text x="222" y="262" fill="#9eabb0">Sicurezza</text>
      <text x="222" y="298" fill="#9eabb0">Software</text>
      <text x="222" y="334" fill="#9eabb0">Servizi</text>
      <text x="222" y="370" fill="#9eabb0">Impostazioni</text>
    </g>
    <line x1="188" y1="522" x2="310" y2="522" stroke="#25343a"/>
    <path d="M198 581 L212 552 L228 581 H219 L212 567 L205 581 Z" fill="#f1bc55"/>
    <text x="238" y="554" fill="#edf5f5" font-family="Segoe UI, Arial" font-size="12">AurionOS Alpha</text>
    <text x="238" y="572" fill="#9eabb0" font-family="Segoe UI, Arial" font-size="11">v0.1 fast-track</text>
    <circle cx="300" cy="563" r="3" fill="#47d98b"/>

    <rect x="322" y="119" width="538" height="478" fill="#0a1215" stroke="#1f3035"/>
    <text x="364" y="158" fill="#edf5f5" font-family="Segoe UI, Arial" font-size="24" font-weight="700">Ciao! Sono </text>
    <text x="503" y="158" fill="#f1bc55" font-family="Segoe UI, Arial" font-size="24" font-weight="700">Aurion.</text>
    <text x="364" y="182" fill="#9eabb0" font-family="Segoe UI, Arial" font-size="13">Il tuo ambiente. Le tue regole.</text>
    <path d="M552 168 C625 128 680 130 732 162 C782 194 824 174 858 145" fill="none" stroke="url(#arc)" stroke-width="3"/>
    <rect x="344" y="216" width="496" height="92" rx="8" fill="#111a1e" stroke="#26373c"/>
    <text x="356" y="249" fill="#9eabb0" font-family="Segoe UI, Arial" font-size="20" font-weight="700">Dimmi cosa vuoi fare?</text>
    <text x="356" y="273" fill="#718187" font-family="Segoe UI, Arial" font-size="11">Esempi: "Installa LibreOffice", "Pulisci la cache", "Mostra spazio disco"</text>
    <rect x="786" y="270" width="48" height="38" rx="8" fill="#2b2315" stroke="#f1bc55"/>
    <text x="802" y="294" fill="#f1bc55" font-family="Segoe UI, Arial" font-size="12">Go</text>
    <text x="344" y="341" fill="#dce7e8" font-family="Segoe UI, Arial" font-size="12">Azioni rapide</text>
    <g font-family="Segoe UI, Arial">
      <rect x="344" y="354" width="112" height="102" rx="8" fill="#131e22" stroke="#26373c"/>
      <rect x="476" y="354" width="112" height="102" rx="8" fill="#131e22" stroke="#26373c"/>
      <rect x="608" y="354" width="112" height="102" rx="8" fill="#131e22" stroke="#26373c"/>
      <rect x="728" y="354" width="112" height="102" rx="8" fill="#131e22" stroke="#26373c"/>
      <text x="350" y="404" fill="#edf5f5" font-size="13" font-weight="700">Leggi email</text>
      <text x="482" y="404" fill="#edf5f5" font-size="13" font-weight="700">Installa app</text>
      <text x="614" y="404" fill="#edf5f5" font-size="13" font-weight="700">Controlla Wi-Fi</text>
      <text x="734" y="404" fill="#edf5f5" font-size="13" font-weight="700">Diagnosi</text>
      <rect x="356" y="367" width="28" height="28" rx="7" fill="#168b92"/>
      <rect x="488" y="367" width="28" height="28" rx="7" fill="#168b92"/>
      <rect x="620" y="367" width="28" height="28" rx="7" fill="#168b92"/>
      <rect x="740" y="367" width="28" height="28" rx="7" fill="#9a6728"/>
    </g>
    <rect x="344" y="464" width="268" height="118" rx="8" fill="#131e22" stroke="#26373c"/>
    <rect x="624" y="464" width="216" height="118" rx="8" fill="#131e22" stroke="#26373c"/>
    <text x="356" y="489" fill="#dce7e8" font-family="Segoe UI, Arial" font-size="12">Attivita recenti</text>
    <text x="648" y="489" fill="#dce7e8" font-family="Segoe UI, Arial" font-size="12">Suggerimenti</text>
    <text x="372" y="514" fill="#9eabb0" font-family="Segoe UI, Arial" font-size="11">Sistema aggiornato</text>
    <text x="372" y="537" fill="#9eabb0" font-family="Segoe UI, Arial" font-size="11">Installato Visual Studio Code</text>
    <text x="372" y="560" fill="#9eabb0" font-family="Segoe UI, Arial" font-size="11">Backup automatico completato</text>
    <rect x="648" y="500" width="168" height="68" rx="8" fill="#10181c" stroke="#25343a"/>
    <text x="664" y="523" fill="#edf5f5" font-family="Segoe UI, Arial" font-size="12" font-weight="700">Attiva il backup automatico</text>
    <text x="664" y="542" fill="#9eabb0" font-family="Segoe UI, Arial" font-size="10">Proteggi i tuoi dati.</text>
    <rect x="664" y="550" width="74" height="20" rx="5" fill="#2b2315" stroke="#f1bc55"/>

    <rect x="860" y="119" width="244" height="478" fill="#0a1114" stroke="#1f3035"/>
    <g font-family="Segoe UI, Arial">
      <rect x="870" y="124" width="224" height="116" rx="8" fill="#131e22" stroke="#26373c"/>
      <text x="902" y="148" fill="#dce7e8" font-size="13" font-weight="700">Assistente AI</text>
      <text x="902" y="177" fill="#47d98b" font-size="11" font-weight="700">Locale (Privacy attiva)</text>
      <text x="902" y="196" fill="#9eabb0" font-size="11">Nessun dato lascia il dispositivo.</text>
      <rect x="900" y="204" width="164" height="30" rx="7" fill="#162126" stroke="#26373c"/>

      <rect x="870" y="250" width="224" height="170" rx="8" fill="#131e22" stroke="#26373c"/>
      <text x="882" y="274" fill="#dce7e8" font-size="13" font-weight="700">Stato sistema</text>
      <text x="882" y="303" fill="#dce7e8" font-size="11">CPU</text>
      <rect x="938" y="296" width="126" height="5" rx="3" fill="#33444a"/>
      <rect x="938" y="296" width="18" height="5" rx="3" fill="#23c7c9"/>
      <text x="882" y="329" fill="#dce7e8" font-size="11">RAM</text>
      <rect x="938" y="322" width="126" height="5" rx="3" fill="#33444a"/>
      <rect x="938" y="322" width="38" height="5" rx="3" fill="#23c7c9"/>
      <text x="882" y="355" fill="#dce7e8" font-size="11">Disco</text>
      <rect x="938" y="348" width="126" height="5" rx="3" fill="#33444a"/>
      <rect x="938" y="348" width="58" height="5" rx="3" fill="#23c7c9"/>
      <text x="882" y="382" fill="#dce7e8" font-size="11">Temperatura</text>
      <text x="1030" y="382" fill="#47d98b" font-size="11" font-weight="700">49 C</text>
      <rect x="900" y="390" width="164" height="30" rx="7" fill="#162126" stroke="#26373c"/>

      <rect x="870" y="430" width="224" height="156" rx="8" fill="#131e22" stroke="#26373c"/>
      <text x="882" y="454" fill="#dce7e8" font-size="13" font-weight="700">Suggerimenti installazioni</text>
      <text x="914" y="486" fill="#edf5f5" font-size="12" font-weight="700">OBS Studio</text>
      <text x="914" y="524" fill="#edf5f5" font-size="12" font-weight="700">GIMP</text>
      <text x="914" y="562" fill="#edf5f5" font-size="12" font-weight="700">VLC Media Player</text>
      <rect x="1048" y="472" width="38" height="20" rx="5" fill="#2b2315" stroke="#f1bc55"/>
      <rect x="1048" y="510" width="38" height="20" rx="5" fill="#2b2315" stroke="#f1bc55"/>
      <rect x="1048" y="548" width="38" height="20" rx="5" fill="#2b2315" stroke="#f1bc55"/>
    </g>
  </g>

  <g filter="url(#shadow)">
    <rect x="320" y="614" width="626" height="84" rx="14" fill="#131e22" opacity="0.9" stroke="#26373c"/>
    <g font-family="Segoe UI, Arial" font-size="11" fill="#edf5f5" text-anchor="middle">
      <rect x="350" y="626" width="48" height="48" rx="10" fill="#2b261a" stroke="#9c7430"/>
      <text x="374" y="686">Aurion Experience</text>
      <rect x="438" y="626" width="48" height="48" rx="10" fill="#155f75"/>
      <text x="462" y="686">Browser</text>
      <rect x="526" y="626" width="48" height="48" rx="10" fill="#21666b"/>
      <text x="550" y="686">Files</text>
      <rect x="614" y="626" width="48" height="48" rx="10" fill="#252a2f"/>
      <text x="638" y="686">Terminal</text>
      <rect x="702" y="626" width="48" height="48" rx="10" fill="#293b72"/>
      <text x="726" y="686">Store</text>
      <rect x="790" y="626" width="48" height="48" rx="10" fill="#147c78"/>
      <text x="814" y="686">Installer</text>
      <rect x="878" y="626" width="48" height="48" rx="10" fill="#118b8d"/>
      <text x="902" y="686">AI Assistant</text>
    </g>
  </g>
</svg>
